<mxfile host="app.diagrams.net" modified="2020-12-07T17:06:29.472Z" agent="5.0 (Macintosh; Intel Mac OS X 10_15_5) AppleWebKit/537.36 (KHTML, like Gecko) Chrome/87.0.4280.67 Safari/537.36" etag="46jauSVtPArnkYj_C6QF" version="13.11.0" type="github">
  <diagram id="uALDm6HvaTPTJGhymucm" name="Page-1">
    <mxGraphModel dx="1022" dy="573" grid="1" gridSize="10" guides="1" tooltips="1" connect="1" arrows="1" fold="1" page="1" pageScale="1" pageWidth="850" pageHeight="1100" math="0" shadow="0">
      <root>
        <mxCell id="0" />
        <mxCell id="1" parent="0" />
        <mxCell id="p1rzFB_tmLa05Qgn7ONr-2" value="MID Request" style="rounded=0;whiteSpace=wrap;html=1;" vertex="1" parent="1">
          <mxGeometry x="300" y="280" width="120" height="60" as="geometry" />
        </mxCell>
        <mxCell id="p1rzFB_tmLa05Qgn7ONr-5" style="edgeStyle=orthogonalEdgeStyle;rounded=0;orthogonalLoop=1;jettySize=auto;html=1;entryX=0;entryY=0.5;entryDx=0;entryDy=0;" edge="1" parent="1" source="p1rzFB_tmLa05Qgn7ONr-3" target="p1rzFB_tmLa05Qgn7ONr-2">
          <mxGeometry relative="1" as="geometry" />
        </mxCell>
        <mxCell id="p1rzFB_tmLa05Qgn7ONr-3" value="Admin Panel/Google Form to request an MID" style="rounded=1;whiteSpace=wrap;html=1;" vertex="1" parent="1">
          <mxGeometry x="80" y="400" width="120" height="60" as="geometry" />
        </mxCell>
        <mxCell id="p1rzFB_tmLa05Qgn7ONr-6" style="edgeStyle=orthogonalEdgeStyle;rounded=0;orthogonalLoop=1;jettySize=auto;html=1;entryX=0;entryY=0.5;entryDx=0;entryDy=0;" edge="1" parent="1" source="p1rzFB_tmLa05Qgn7ONr-4" target="p1rzFB_tmLa05Qgn7ONr-2">
          <mxGeometry relative="1" as="geometry" />
        </mxCell>
        <mxCell id="p1rzFB_tmLa05Qgn7ONr-4" value="Periodic Cron to find high transacting merchants" style="rounded=1;whiteSpace=wrap;html=1;" vertex="1" parent="1">
          <mxGeometry x="80" y="180" width="120" height="60" as="geometry" />
        </mxCell>
      </root>
    </mxGraphModel>
  </diagram>
</mxfile>
